<svg xmlns="http://www.w3.org/2000/svg" width="69.97" height="80" viewBox="0 0 69.97 80">
  <metadata><?xpacket begin="﻿" id="W5M0MpCehiHzreSzNTczkc9d"?>
<x:xmpmeta xmlns:x="adobe:ns:meta/" x:xmptk="Adobe XMP Core 5.6-c138 79.159824, 2016/09/14-01:09:01        ">
   <rdf:RDF xmlns:rdf="http://www.w3.org/1999/02/22-rdf-syntax-ns#">
      <rdf:Description rdf:about=""/>
   </rdf:RDF>
</x:xmpmeta>
                                                                                                    
                                                                                                    
                                                                                                    
                                                                                                    
                                                                                                    
                                                                                                    
                                                                                                    
                                                                                                    
                                                                                                    
                                                                                                    
                                                                                                    
                                                                                                    
                                                                                                    
                                                                                                    
                                                                                                    
                                                                                                    
                                                                                                    
                                                                                                    
                                                                                                    
                                                                                                    
                           
<?xpacket end="w"?></metadata>
<defs>
    <style>
      .cls-1 {
        fill: #fff;
        fill-rule: evenodd;
      }
    </style>
  </defs>
  <path id="Gift_box" data-name="Gift box" class="cls-1" d="M4096.82,1099.36l-24.41,14.07v-18.16l-0.78.39a4.6,4.6,0,0,1-1.62.3,4.849,4.849,0,0,1-1.61-.29l-0.13-.02-0.42-.2-0.25-.12v18.1l-24.4-14.07v-16.31l-4.81-2.42v20.11a2.394,2.394,0,0,0,1.2,2.08l29.21,16.86a2.45,2.45,0,0,0,1.21.31,2.413,2.413,0,0,0,1.2-.31l29.22-16.86a2.394,2.394,0,0,0,1.2-2.08v-20.11l-4.81,2.41v16.32h0Zm-25.07-48.15-0.99-.33a2.435,2.435,0,0,0-1.51,0l-0.98.33c0.64,1.47,1.22,2.95,1.73,4.36C4070.52,1054.16,4071.11,1052.68,4071.75,1051.21Zm33.24,12.59v-0.05a0.8,0.8,0,0,0-.03-0.15,2.455,2.455,0,0,0-.1-0.47,1.427,1.427,0,0,0-.08-0.22,2.817,2.817,0,0,0-.21-0.38c-0.05-.06-0.08-0.13-0.13-0.19a2.5,2.5,0,0,0-.33-0.32c-0.05-.04-0.1-0.1-0.16-0.14a0.062,0.062,0,0,1-.04-0.03,2.807,2.807,0,0,0-.55-0.27h-0.02l-6.05-1.99c-0.28.31-.55,0.6-0.82,0.87-2.77,2.76-7.43,5.06-11.75,6.77l5.14,2.09v11.85l-7.13,3.59v-12.38l-8.18-4.31c2.11-.57,15.13-4.23,20.22-9.31,1.48-1.48,3.44-3.78,3.31-6.61s-2.1-4.48-3.69-5.81c-0.45-.37-0.93-0.78-1.39-1.23s-0.87-.95-1.25-1.4c-1.3-1.56-3.09-3.69-6.07-3.69-2.72,0-4.93,1.89-6.35,3.31-5.1,5.1-8.76,18.12-9.32,20.21-0.57-2.09-4.23-15.11-9.33-20.21-1.42-1.42-3.63-3.32-6.35-3.32-2.98,0-4.77,2.14-6.08,3.69a17.125,17.125,0,0,1-1.23,1.4c-0.46.46-.95,0.86-1.4,1.24-1.59,1.33-3.57,2.98-3.69,5.81s1.83,5.13,3.31,6.61c5.09,5.09,18.12,8.74,20.22,9.31l-8.18,4.31v12.38l-7.13-3.59v-11.85l5.15-2.09c-4.33-1.72-9-4.02-11.76-6.77-0.26-.27-0.54-0.56-0.82-0.87l-6.05,1.98-0.01.01a2.216,2.216,0,0,0-.56.27,0.138,0.138,0,0,1-.04.03,2,2,0,0,0-.16.14,1.937,1.937,0,0,0-.32.32,0.847,0.847,0,0,0-.14.19,2.817,2.817,0,0,0-.21.38,1.427,1.427,0,0,0-.08.22,2.455,2.455,0,0,0-.1.47,0.8,0.8,0,0,0-.03.15,0.433,0.433,0,0,1,.01.05c0,0.02-.01.04-0.01,0.06v10.91a2.381,2.381,0,0,0,1.32,2.14l32.58,16.39c0.04,0.02.07,0.01,0.11,0.03a2.182,2.182,0,0,0,1.95,0c0.03-.02.07-0.01,0.11-0.03l32.58-16.39a2.411,2.411,0,0,0,1.32-2.14V1063.8Zm-23.11-17.92c4.69-4.69,5.71-1.08,8.57,1.77s6.46,3.87,1.77,8.56-18.77,8.43-18.77,8.43S4077.18,1050.57,4081.88,1045.88Zm-32.31,1.77c2.85-2.85,3.87-6.46,8.57-1.77s8.43,18.76,8.43,18.76-14.08-3.73-18.78-8.42S4046.71,1050.51,4049.57,1047.65Z" transform="translate(-4035.03 -1040)"/>
</svg>
