<svg xmlns="http://www.w3.org/2000/svg" width="59.97" height="59.97" viewBox="0 0 59.97 59.97">
  <metadata><?xpacket begin="﻿" id="W5M0MpCehiHzreSzNTczkc9d"?>
<x:xmpmeta xmlns:x="adobe:ns:meta/" x:xmptk="Adobe XMP Core 5.6-c138 79.159824, 2016/09/14-01:09:01        ">
   <rdf:RDF xmlns:rdf="http://www.w3.org/1999/02/22-rdf-syntax-ns#">
      <rdf:Description rdf:about=""/>
   </rdf:RDF>
</x:xmpmeta>
                                                                                                    
                                                                                                    
                                                                                                    
                                                                                                    
                                                                                                    
                                                                                                    
                                                                                                    
                                                                                                    
                                                                                                    
                                                                                                    
                                                                                                    
                                                                                                    
                                                                                                    
                                                                                                    
                                                                                                    
                                                                                                    
                                                                                                    
                                                                                                    
                                                                                                    
                                                                                                    
                           
<?xpacket end="w"?></metadata>
<defs>
    <style>
      .cls-1 {
        fill: #39c5f3;
        fill-rule: evenodd;
      }
    </style>
  </defs>
  <path id="User_icon" data-name="User icon" class="cls-1" d="M4270,1060.01a29.985,29.985,0,1,0,29.98,29.99A29.994,29.994,0,0,0,4270,1060.01Zm0,8.97a9.915,9.915,0,1,1-9.92,9.92A9.918,9.918,0,0,1,4270,1068.98Zm-0.01,43.16a22.032,22.032,0,0,1-14.33-5.28,4.228,4.228,0,0,1-1.48-3.22,9.993,9.993,0,0,1,10.05-9.99h11.54a9.985,9.985,0,0,1,10.04,9.99,4.238,4.238,0,0,1-1.49,3.22A22.012,22.012,0,0,1,4269.99,1112.14Z" transform="translate(-4240 -1060)"/>
</svg>
